<?xml version="1.0" standalone="no"?><!DOCTYPE svg PUBLIC "-//W3C//DTD SVG 1.1//EN" "http://www.w3.org/Graphics/SVG/1.1/DTD/svg11.dtd"><svg t="1586262282834" class="icon" viewBox="0 0 1024 1024" version="1.1" xmlns="http://www.w3.org/2000/svg" p-id="2917" xmlns:xlink="http://www.w3.org/1999/xlink" width="48" height="48"><defs><style type="text/css"></style></defs><path d="M1009.85838593 165.74432939l-47.56028872 47.23777876L803.9143845 55.57291007l47.56028867-47.17141445c17.45394688-17.38874656 44.96740352-18.30038982 61.31759905-2.01190172l99.01398015 98.36546728C1028.22164705 121.04005631 1027.31233281 148.35907584 1009.85838593 165.74432939L1009.85838593 165.74432939zM589.79353826 583.21862091L431.41098953 425.80709377l348.43159433-346.22525554 158.38487783 157.41036197L589.79353826 583.21862091 589.79353826 583.21862091zM567.73363939 605.14928186l-221.71088557 62.93596956 63.32833681-220.34982458L567.73363939 605.14928186 567.73363939 605.14928186zM198.60087921 126.42841488c-54.7637817 0-99.07918052 44.31539884-99.07918051 99.01398015l0 594.34351731c0 54.68461057 44.33053469 99.01630805 99.01630804 99.01630804l594.47275409 0c54.68577452 0 99.01863709-44.33169866 99.01863707-99.01863708L892.0293979 423.53555459l99.07685149-99.0186371 0 528.2942225c0 91.16430222-73.90362853 165.06676679-165.06676681 165.06676677L165.51045006 1017.87790678c-91.16430222 0-165.06676679-73.90362853-165.0667668-165.06676679L0.4436833 192.41483606c0-91.16430222 73.90362853-165.06676679 165.06676676-165.06676679l528.42462437 0-99.08150842 99.08150839L198.60087921 126.42957882 198.60087921 126.42841488z" p-id="2918"></path></svg>
