<?xml version="1.0" standalone="no"?><!DOCTYPE svg PUBLIC "-//W3C//DTD SVG 1.1//EN" "http://www.w3.org/Graphics/SVG/1.1/DTD/svg11.dtd"><svg t="1582339441336" class="icon" viewBox="0 0 1024 1024" version="1.1" xmlns="http://www.w3.org/2000/svg" p-id="7614" xmlns:xlink="http://www.w3.org/1999/xlink" width="200" height="200"><defs><style type="text/css"></style></defs><path d="M830.592 284.416C828.736 268.224 815.04 256 798.72 256L639.04 256 639.04 224c0-88.192-71.68-160-159.744-160S319.552 135.808 319.552 224L319.552 256 159.872 256C143.552 256 129.92 268.224 128.128 284.416l-63.936 576c-1.024 9.088 1.92 18.112 8 24.96C78.272 892.096 86.848 896 95.936 896l766.72 0c9.088 0 17.728-3.904 23.808-10.624 6.016-6.784 8.96-15.872 7.936-24.96L830.592 284.416zM383.488 224c0-52.928 43.008-96 95.808-96 52.864 0 95.872 43.072 95.872 96L575.168 256 383.488 256 383.488 224zM131.712 832l56.832-512 131.072 0 0 96c0 17.664 14.336 32 32 32 17.6 0 31.936-14.336 31.936-32L383.552 320l191.68 0 0 96C575.168 433.664 589.44 448 607.104 448c17.6 0 31.936-14.336 31.936-32L639.04 320l131.136 0 56.832 512L131.712 832z" p-id="7615"></path></svg>