<?xml version="1.0" standalone="no"?><!DOCTYPE svg PUBLIC "-//W3C//DTD SVG 1.1//EN" "http://www.w3.org/Graphics/SVG/1.1/DTD/svg11.dtd"><svg t="1585712841979" class="icon" viewBox="0 0 1024 1024" version="1.1" xmlns="http://www.w3.org/2000/svg" p-id="3125" width="48" height="48" xmlns:xlink="http://www.w3.org/1999/xlink"><defs><style type="text/css"></style></defs><path d="M758.592 127.36h42.944a96 96 0 0 1 96 96v577.152a96 96 0 0 1-96 96H225.28a96 96 0 0 1-96-96V223.36a96 96 0 0 1 96-96h31.552a32 32 0 1 0 0-64H225.28a160 160 0 0 0-160 160v577.088a160 160 0 0 0 160 160h576.32a160 160 0 0 0 160-160V223.36a160 160 0 0 0-160-160h-42.88a32 32 0 1 0 0 64z" fill="#2c2c2c" p-id="3126"></path><path d="M321.152 32v126.848a32 32 0 0 0 64 0V32a32 32 0 1 0-64 0zM641.536 32v126.848a32 32 0 1 0 64 0V32a32 32 0 1 0-64 0zM449.152 127.36h128a32 32 0 1 0 0-64h-128a32 32 0 0 0 0 64zM513.408 559.04a137.536 137.536 0 1 0 0-275.008 137.536 137.536 0 0 0 0 275.008z m0-64a73.536 73.536 0 1 1 0-147.008 73.536 73.536 0 0 1 0 147.008zM289.024 832.512v-64c0-111.168 102.912-195.648 224.384-195.648 121.408 0 224.32 84.48 224.32 195.648v64h-448.64z m384.704-64c0-72.704-71.808-131.648-160.32-131.648-88.576 0-160.384 58.88-160.384 131.648h320.704z" fill="#2c2c2c" p-id="3127"></path></svg>